<svg xmlns="http://www.w3.org/2000/svg" aria-hidden="true" aria-label="A chart." style="overflow: hidden;" height="230" width="645"><defs id="defs"><clipPath id="_ABSTRACT_RENDERER_ID_39"><rect height="190" width="645" y="10" x="0"></rect></clipPath></defs><g><rect fill="#ffffff" fill-opacity="0" stroke-width="0" stroke="none" height="190" width="645" y="10" x="0"></rect><g clip-path="url(http://www.google.com/trends/explore#_ABSTRACT_RENDERER_ID_39)"><g><rect fill="#ffffff" stroke-width="0" stroke="none" height="190" width="1" y="10" x="57"></rect><rect fill="#ffffff" stroke-width="0" stroke="none" height="190" width="1" y="10" x="176"></rect><rect fill="#ffffff" stroke-width="0" stroke="none" height="190" width="1" y="10" x="295"></rect><rect fill="#ffffff" stroke-width="0" stroke="none" height="190" width="1" y="10" x="414"></rect><rect fill="#ffffff" stroke-width="0" stroke="none" height="190" width="1" y="10" x="533"></rect><rect fill="#efefef" stroke-width="0" stroke="none" height="1" width="645" y="199" x="0"></rect><rect fill="#efefef" stroke-width="0" stroke="none" height="1" width="645" y="161" x="0"></rect><rect fill="#efefef" stroke-width="0" stroke="none" height="1" width="645" y="123" x="0"></rect><rect fill="#efefef" stroke-width="0" stroke="none" height="1" width="645" y="86" x="0"></rect><rect fill="#efefef" stroke-width="0" stroke="none" height="1" width="645" y="48" x="0"></rect><rect fill="#efefef" stroke-width="0" stroke="none" height="1" width="645" y="10" x="0"></rect></g><g><rect fill="#ffffff" stroke-width="0" stroke="none" height="190" width="1" y="10" x="0"></rect><rect fill="#999999" stroke-width="0" stroke="none" height="1" width="645" y="199" x="0"></rect></g><g><path fill="none" fill-opacity="1" stroke-width="2" stroke="#3f85f2" d="M0.5,10.5L5.383155178768891,18.060000000000002L10.266310357537781,10.5L15.23085145595282,18.060000000000002L20.188610394397347,27.51000000000002L25.153151492812384,35.07000000000002L30.117692591227424,21.840000000000003L35.16361960928861,21.840000000000003L40.12816070770365,25.620000000000005L45.09270180611869,23.730000000000018L50.064025064504236,23.730000000000018L55.028566162919276,14.280000000000001L60.07449318098046,19.950000000000017L64.8762624401032,14.280000000000001L69.67803169922595,21.840000000000003L74.64257279764098,31.29000000000002L79.60033173608551,23.730000000000018L84.56487283450055,16.170000000000016L89.52941393291559,31.29000000000002L94.57534095097678,33.18000000000001L99.53988204939182,27.51000000000002L104.50442314780686,36.96000000000001L109.4757464061924,25.620000000000005L114.44028750460744,44.52000000000001L119.48621452266863,31.29000000000002L124.28798378179137,42.629999999999995L129.0897530409141,44.52000000000001L134.05429413932916,55.860000000000014L139.0120530777737,53.97L143.9765941761887,69.09L148.94113527460377,70.98000000000002L153.98706229266494,63.420000000000016L158.95160339107997,67.20000000000002L163.91614448949503,61.53L168.88746774788058,63.420000000000016L173.8520088462956,72.87L178.8979358643568,76.65L183.69970512347953,70.98000000000002L188.5082565425728,72.87L193.4592333210468,87.99000000000001L198.42377441946184,89.88000000000001L203.3883155178769,89.88000000000001L208.35285661629192,91.77000000000001L213.39878363435312,93.66000000000001L218.36332473276815,101.22L223.3278658311832,97.44000000000001L228.29240692959823,95.55000000000001L233.26373018798378,105L238.30965720604496,114.45L243.19281238481386,112.56L248.08274972355326,118.23L253.03372650202726,116.34L257.9982676004423,123.9L262.9628086988574,122.01L267.92734979727237,114.45L272.9732768153336,123.9L277.93781791374863,127.68L282.90235901216363,127.68L287.8669001105787,129.57L292.83822336896424,133.35000000000002L297.88415038702544,135.24L302.6859196461482,135.24L307.49447106524144,133.35000000000002L312.44544784371544,135.24L317.4099889421305,139.02L322.3745300405455,140.91L327.33907113896055,137.13L332.38499815702176,142.8L337.3495392554368,144.69L342.3140803538518,144.69L347.27862145226686,146.58L352.2499447106524,148.47L357.2958717287136,150.36L362.0976409878363,148.47L366.9061924069296,150.36L371.8571691854036,154.14L376.8217102838187,156.03L381.7862513822337,156.03L386.7507924806487,159.81L391.79671949870993,159.81L396.76126059712493,159.81L401.72580169554,159.81L406.69034279395504,161.7L411.6616660523406,159.81L416.70759307040174,159.81L421.5093623295245,161.7L426.31791374861774,163.59L431.2688905270918,167.37L436.2334316255068,167.37L441.19797272392185,169.26L446.1625138223369,171.15L451.20844084039805,173.04L456.1729819388131,171.15L461.13752303722816,173.04L466.1020641356432,171.15L471.07338739402877,174.93L476.1193144120899,173.04L481.0024695908588,171.15L485.8924069295982,171.15L490.8433837080722,173.04L495.8079248064873,174.93L500.77246590490233,176.82L505.73700700331733,174.93L510.78293402137854,174.93L515.7474751197935,174.93L520.7120162182086,174.93L525.6765573166236,176.82L530.6478805750093,176.82L535.6938075930703,176.82L540.4955768521932,176.82L545.3041282712863,176.82L550.2551050497605,178.71L555.2196461481755,178.71L560.1841872465905,180.6L565.1487283450056,180.6L570.1946553630667,180.6L575.1591964614818,180.6L580.1237375598968,180.6L585.0882786583119,178.71L590.0596019166974,182.49L595.1055289347586,180.6L599.9072981938813,180.6L604.7158496129746,182.49L609.6668263914486,180.6L614.6313674898636,182.49L619.5959085882787,184.38L624.5604496866937,184.38L629.6063767047549,184.38L634.5709178031699,184.38L639.535458901585,182.49L644.5,184.38"></path><path fill="none" fill-opacity="1" stroke-width="2" stroke="#db4437" d="M0.5,199.5L5.383155178768891,199.5L10.266310357537781,199.5L15.23085145595282,199.5L20.188610394397347,199.5L25.153151492812384,199.5L30.117692591227424,199.5L35.16361960928861,199.5L40.12816070770365,199.5L45.09270180611869,199.5L50.064025064504236,199.5L55.028566162919276,199.5L60.07449318098046,199.5L64.8762624401032,199.5L69.67803169922595,199.5L74.64257279764098,199.5L79.60033173608551,199.5L84.56487283450055,199.5L89.52941393291559,199.5L94.57534095097678,199.5L99.53988204939182,199.5L104.50442314780686,199.5L109.4757464061924,199.5L114.44028750460744,199.5L119.48621452266863,199.5L124.28798378179137,199.5L129.0897530409141,199.5L134.05429413932916,199.5L139.0120530777737,199.5L143.9765941761887,199.5L148.94113527460377,199.5L153.98706229266494,199.5L158.95160339107997,199.5L163.91614448949503,199.5L168.88746774788058,199.5L173.8520088462956,199.5L178.8979358643568,199.5L183.69970512347953,199.5L188.5082565425728,199.5L193.4592333210468,199.5L198.42377441946184,199.5L203.3883155178769,199.5L208.35285661629192,199.5L213.39878363435312,199.5L218.36332473276815,199.5L223.3278658311832,199.5L228.29240692959823,199.5L233.26373018798378,199.5L238.30965720604496,199.5L243.19281238481386,199.5L248.08274972355326,199.5L253.03372650202726,197.61L257.9982676004423,197.61L262.9628086988574,195.72L267.92734979727237,195.72L272.9732768153336,195.72L277.93781791374863,195.72L282.90235901216363,193.83L287.8669001105787,193.83L292.83822336896424,193.83L297.88415038702544,190.05L302.6859196461482,191.94L307.49447106524144,190.05L312.44544784371544,190.05L317.4099889421305,190.05L322.3745300405455,190.05L327.33907113896055,188.16L332.38499815702176,169.26L337.3495392554368,186.27L342.3140803538518,186.27L347.27862145226686,186.27L352.2499447106524,186.27L357.2958717287136,184.38L362.0976409878363,184.38L366.9061924069296,182.49L371.8571691854036,182.49L376.8217102838187,180.6L381.7862513822337,180.6L386.7507924806487,180.6L391.79671949870993,176.82L396.76126059712493,174.93L401.72580169554,173.04L406.69034279395504,173.04L411.6616660523406,173.04L416.70759307040174,169.26L421.5093623295245,163.59L426.31791374861774,163.59L431.2688905270918,157.92000000000002L436.2334316255068,156.03L441.19797272392185,150.36L446.1625138223369,150.36L451.20844084039805,150.36L456.1729819388131,144.69L461.13752303722816,146.58L466.1020641356432,144.69L471.07338739402877,146.58L476.1193144120899,140.91L481.0024695908588,131.46L485.8924069295982,125.79L490.8433837080722,127.68L495.8079248064873,123.9L500.77246590490233,123.9L505.73700700331733,120.12L510.78293402137854,118.23L515.7474751197935,114.45L520.7120162182086,112.56L525.6765573166236,116.34L530.6478805750093,122.01L535.6938075930703,105L540.4955768521932,97.44000000000001L545.3041282712863,93.66000000000001L550.2551050497605,89.88000000000001L555.2196461481755,91.77000000000001L560.1841872465905,91.77000000000001L565.1487283450056,86.10000000000001L570.1946553630667,86.10000000000001L575.1591964614818,84.21000000000001L580.1237375598968,72.87L585.0882786583119,69.09L590.0596019166974,82.32000000000001L595.1055289347586,70.98000000000002L599.9072981938813,57.75L604.7158496129746,36.96000000000001L609.6668263914486,31.29000000000002L614.6313674898636,42.629999999999995L619.5959085882787,59.640000000000015L624.5604496866937,55.860000000000014L629.6063767047549,57.75L634.5709178031699,46.41L639.535458901585,33.18000000000001L644.5,40.74000000000001"></path></g><g><rect fill="#999999" stroke-width="0" stroke="none" height="12" width="1" y="100.56" x="243.19281238481386"></rect><rect fill="#999999" stroke-width="0" stroke="none" height="12" width="1" y="102.45" x="267.92734979727237"></rect><rect fill="#999999" stroke-width="0" stroke="none" height="12" width="1" y="115.68" x="282.90235901216363"></rect><rect fill="#999999" stroke-width="0" stroke="none" height="12" width="1" y="132.69" x="342.3140803538518"></rect><rect fill="#999999" stroke-width="0" stroke="none" height="12" width="1" y="138.36" x="441.19797272392185"></rect><rect fill="#999999" stroke-width="0" stroke="none" height="12" width="1" y="132.69" x="466.1020641356432"></rect><rect fill="#999999" stroke-width="0" stroke="none" height="12" width="1" y="113.79" x="485.8924069295982"></rect><rect fill="#999999" stroke-width="0" stroke="none" height="12" width="1" y="111.9" x="495.8079248064873"></rect><rect fill="#999999" stroke-width="0" stroke="none" height="12" width="1" y="77.88000000000001" x="550.2551050497605"></rect><rect fill="#999999" stroke-width="0" stroke="none" height="12" width="1" y="74.10000000000001" x="565.1487283450056"></rect><rect fill="#999999" stroke-width="0" stroke="none" height="12" width="1" y="57.09" x="585.0882786583119"></rect><rect fill="#999999" stroke-width="0" stroke="none" height="12" width="1" y="31.29000000000002" x="609.6668263914486"></rect><rect fill="#999999" stroke-width="0" stroke="none" height="12" width="1" y="43.860000000000014" x="624.5604496866937"></rect><rect fill="#999999" stroke-width="0" stroke="none" height="12" width="1" y="33.18000000000001" x="639.535458901585"></rect></g></g><g></g><g><g><text fill="#999999" stroke-width="0" stroke="none" font-size="9" font-family="Arial" y="213.65" x="57.55152967194987" text-anchor="middle">2005</text></g><g><text fill="#999999" stroke-width="0" stroke="none" font-size="9" font-family="Arial" y="213.65" x="176.3749723553262" text-anchor="middle">2007</text></g><g><text fill="#999999" stroke-width="0" stroke="none" font-size="9" font-family="Arial" y="213.65" x="295.36118687799484" text-anchor="middle">2009</text></g><g><text fill="#999999" stroke-width="0" stroke="none" font-size="9" font-family="Arial" y="213.65" x="414.1846295613712" text-anchor="middle">2011</text></g><g><text fill="#999999" stroke-width="0" stroke="none" font-size="9" font-family="Arial" y="213.65" x="533.1708440840398" text-anchor="middle">2013</text></g></g><g><g><g><rect fill="#ffffff" fill-opacity="0" stroke-width="0" stroke="none" height="14" width="14" y="87.5" x="236.5"></rect><text fill="#3f85f2" stroke-width="0" stroke="none" font-size="12" font-family="Arial" y="98.76" x="243.19281238481386" text-anchor="middle">N</text><rect fill="#ffffff" fill-opacity="0" stroke-width="0" stroke="none" height="12" width="9" y="88.56" x="238.69281238481386"></rect></g></g><g><g><rect fill="#ffffff" fill-opacity="0" stroke-width="0" stroke="none" height="14" width="15" y="89.5" x="260.5"></rect><text fill="#3f85f2" stroke-width="0" stroke="none" font-size="12" font-family="Arial" y="100.65" x="267.92734979727237" text-anchor="middle">M</text><rect fill="#ffffff" fill-opacity="0" stroke-width="0" stroke="none" height="12" width="10" y="90.45" x="262.92734979727237"></rect></g></g><g><g><rect fill="#ffffff" fill-opacity="0" stroke-width="0" stroke="none" height="14" width="12" y="102.5" x="277.5"></rect><text fill="#3f85f2" stroke-width="0" stroke="none" font-size="12" font-family="Arial" y="113.88000000000001" x="282.90235901216363" text-anchor="middle">L</text><rect fill="#ffffff" fill-opacity="0" stroke-width="0" stroke="none" height="12" width="7" y="103.68" x="279.40235901216363"></rect></g></g><g><g><rect fill="#ffffff" fill-opacity="0" stroke-width="0" stroke="none" height="14" width="13" y="119.5" x="336.5"></rect><text fill="#3f85f2" stroke-width="0" stroke="none" font-size="12" font-family="Arial" y="130.89" x="342.3140803538518" text-anchor="middle">K</text><rect fill="#ffffff" fill-opacity="0" stroke-width="0" stroke="none" height="12" width="8" y="120.69" x="338.3140803538518"></rect></g></g><g><g><rect fill="#ffffff" fill-opacity="0" stroke-width="0" stroke="none" height="14" width="11" y="125.5" x="436.5"></rect><text fill="#db4437" stroke-width="0" stroke="none" font-size="12" font-family="Arial" y="136.56" x="441.19797272392185" text-anchor="middle">J</text><rect fill="#ffffff" fill-opacity="0" stroke-width="0" stroke="none" height="12" width="6" y="126.36000000000001" x="438.19797272392185"></rect></g></g><g><g><rect fill="#ffffff" fill-opacity="0" stroke-width="0" stroke="none" height="14" width="8" y="119.5" x="462.5"></rect><text fill="#db4437" stroke-width="0" stroke="none" font-size="12" font-family="Arial" y="130.89" x="466.1020641356432" text-anchor="middle">I</text><rect fill="#ffffff" fill-opacity="0" stroke-width="0" stroke="none" height="12" width="3" y="120.69" x="464.6020641356432"></rect></g></g><g><g><rect fill="#ffffff" fill-opacity="0" stroke-width="0" stroke="none" height="14" width="14" y="100.5" x="479.5"></rect><text fill="#db4437" stroke-width="0" stroke="none" font-size="12" font-family="Arial" y="111.99000000000001" x="485.8924069295982" text-anchor="middle">H</text><rect fill="#ffffff" fill-opacity="0" stroke-width="0" stroke="none" height="12" width="9" y="101.79" x="481.3924069295982"></rect></g></g><g><g><rect fill="#ffffff" fill-opacity="0" stroke-width="0" stroke="none" height="14" width="14" y="98.5" x="489.5"></rect><text fill="#db4437" stroke-width="0" stroke="none" font-size="12" font-family="Arial" y="110.10000000000001" x="495.8079248064873" text-anchor="middle">G</text><rect fill="#ffffff" fill-opacity="0" stroke-width="0" stroke="none" height="12" width="9" y="99.9" x="491.3079248064873"></rect></g></g><g><g><rect fill="#ffffff" fill-opacity="0" stroke-width="0" stroke="none" height="14" width="12" y="64.5" x="544.5"></rect><text fill="#db4437" stroke-width="0" stroke="none" font-size="12" font-family="Arial" y="76.08000000000001" x="550.2551050497605" text-anchor="middle">F</text><rect fill="#ffffff" fill-opacity="0" stroke-width="0" stroke="none" height="12" width="7" y="65.88000000000001" x="546.7551050497605"></rect></g></g><g><g><rect fill="#ffffff" fill-opacity="0" stroke-width="0" stroke="none" height="14" width="13" y="61.5" x="559.5"></rect><text fill="#db4437" stroke-width="0" stroke="none" font-size="12" font-family="Arial" y="72.30000000000001" x="565.1487283450056" text-anchor="middle">E</text><rect fill="#ffffff" fill-opacity="0" stroke-width="0" stroke="none" height="12" width="8" y="62.10000000000001" x="561.1487283450056"></rect></g></g><g><g><rect fill="#ffffff" fill-opacity="0" stroke-width="0" stroke="none" height="14" width="14" y="44.5" x="578.5"></rect><text fill="#db4437" stroke-width="0" stroke="none" font-size="12" font-family="Arial" y="55.290000000000006" x="585.0882786583119" text-anchor="middle">D</text><rect fill="#ffffff" fill-opacity="0" stroke-width="0" stroke="none" height="12" width="9" y="45.09" x="580.5882786583119"></rect></g></g><g><g><rect fill="#ffffff" fill-opacity="0" stroke-width="0" stroke="none" height="14" width="14" y="42.5" x="603.5"></rect><text fill="#db4437" stroke-width="0" stroke="none" font-size="12" font-family="Arial" y="53.49000000000002" x="609.6668263914486" text-anchor="middle">C</text><rect fill="#ffffff" fill-opacity="0" stroke-width="0" stroke="none" height="12" width="9" y="43.29000000000002" x="605.1668263914486"></rect></g></g><g><g><rect fill="#ffffff" fill-opacity="0" stroke-width="0" stroke="none" height="14" width="13" y="30.5" x="618.5"></rect><text fill="#db4437" stroke-width="0" stroke="none" font-size="12" font-family="Arial" y="42.06000000000002" x="624.5604496866937" text-anchor="middle">B</text><rect fill="#ffffff" fill-opacity="0" stroke-width="0" stroke="none" height="12" width="8" y="31.860000000000014" x="620.5604496866937"></rect></g></g><g><g><rect fill="#ffffff" fill-opacity="0" stroke-width="0" stroke="none" height="14" width="13" y="44.5" x="633.5"></rect><text fill="#db4437" stroke-width="0" stroke="none" font-size="12" font-family="Arial" y="55.38000000000001" x="639.535458901585" text-anchor="middle">A</text><rect fill="#ffffff" fill-opacity="0" stroke-width="0" stroke="none" height="12" width="8" y="45.18000000000001" x="635.535458901585"></rect></g></g></g></g><g></g></svg>
